<svg xmlns="http://www.w3.org/2000/svg" xmlns:xlink="http://www.w3.org/1999/xlink" viewBox="1721 949 1366 1276">
  <defs>
    <style>
      .cls-1 {
        fill: none;
      }

      .cls-2 {
        clip-path: url(#clip-FAQ);
      }

      .cls-3 {
        fill: #777;
      }

      .cls-4 {
        fill: #fff;
        font-size: 80px;
      }

      .cls-10, .cls-12, .cls-4, .cls-8 {
        font-family: Abel-Regular, Abel;
      }

      .cls-5 {
        clip-path: url(#clip-path);
      }

      .cls-10, .cls-11, .cls-6, .cls-8 {
        fill: #af0;
      }

      .cls-7 {
        fill: #7b0;
      }

      .cls-8 {
        font-size: 20px;
      }

      .cls-12, .cls-9 {
        fill: #555;
      }

      .cls-11, .cls-9 {
        stroke: #333;
      }

      .cls-10, .cls-12 {
        font-size: 24px;
      }

      .cls-13 {
        stroke: none;
      }

      .cls-14 {
        fill: #333;
      }

      .cls-15 {
        filter: url(#Path_21-2);
      }

      .cls-16 {
        filter: url(#Path_20-2);
      }

      .cls-17 {
        filter: url(#Path_21);
      }

      .cls-18 {
        filter: url(#Path_20);
      }

      .cls-19 {
        filter: url(#Path_23);
      }
    </style>
    <filter id="Path_23" x="1812.5" y="1135.5" width="315" height="515" filterUnits="userSpaceOnUse">
      <feOffset dy="3" input="SourceAlpha"/>
      <feGaussianBlur stdDeviation="2.5" result="blur"/>
      <feFlood flood-opacity="0.502"/>
      <feComposite operator="in" in2="blur"/>
      <feComposite in="SourceGraphic"/>
    </filter>
    <clipPath id="clip-path">
      <rect class="cls-1" width="800" height="1020"/>
    </clipPath>
    <filter id="Path_20" x="2163.5" y="1165.5" width="815" height="265" filterUnits="userSpaceOnUse">
      <feOffset dy="3" input="SourceAlpha"/>
      <feGaussianBlur stdDeviation="2.5" result="blur-2"/>
      <feFlood flood-opacity="0.502"/>
      <feComposite operator="in" in2="blur-2"/>
      <feComposite in="SourceGraphic"/>
    </filter>
    <filter id="Path_21" x="2163.5" y="1420.5" width="815" height="265" filterUnits="userSpaceOnUse">
      <feOffset dy="3" input="SourceAlpha"/>
      <feGaussianBlur stdDeviation="2.5" result="blur-3"/>
      <feFlood flood-opacity="0.502"/>
      <feComposite operator="in" in2="blur-3"/>
      <feComposite in="SourceGraphic"/>
    </filter>
    <filter id="Path_20-2" x="2163.5" y="1676.5" width="815" height="265" filterUnits="userSpaceOnUse">
      <feOffset dy="3" input="SourceAlpha"/>
      <feGaussianBlur stdDeviation="2.5" result="blur-4"/>
      <feFlood flood-opacity="0.502"/>
      <feComposite operator="in" in2="blur-4"/>
      <feComposite in="SourceGraphic"/>
    </filter>
    <filter id="Path_21-2" x="2163.5" y="1931.5" width="815" height="265" filterUnits="userSpaceOnUse">
      <feOffset dy="3" input="SourceAlpha"/>
      <feGaussianBlur stdDeviation="2.5" result="blur-5"/>
      <feFlood flood-opacity="0.502"/>
      <feComposite operator="in" in2="blur-5"/>
      <feComposite in="SourceGraphic"/>
    </filter>
    <clipPath id="clip-FAQ">
      <rect x="1721" y="949" width="1366" height="1276"/>
    </clipPath>
  </defs>
  <g id="FAQ" class="cls-2">
    <rect class="cls-14" x="1721" y="949" width="1366" height="1276"/>
    <g class="cls-19" transform="matrix(1, 0, 0, 1, 0, 0)">
      <path id="Path_23-2" data-name="Path 23" class="cls-3" d="M-1-3.269H124L149-30,174-3.269H299V470H-1Z" transform="translate(1821 1170)"/>
    </g>
    <text id="FAQ-2" data-name="FAQ" class="cls-4" transform="translate(1821 1049)"><tspan x="90.313" y="78">FAQ</tspan></text>
    <g id="Repeat_Grid_3" data-name="Repeat Grid 3" class="cls-5" transform="translate(2171 1170)">
      <g id="Group_20" data-name="Group 20" transform="translate(-500 -120)">
        <g id="Symbol_7_1" data-name="Symbol 7 – 1">
          <g class="cls-18" transform="matrix(1, 0, 0, 1, -1671, -1050)">
            <path id="Path_20-3" data-name="Path 20" class="cls-6" d="M-1-17.348H339l60,25,60-25H799v225H459l-60,25-60-25H-1Z" transform="translate(2172 1187.35)"/>
          </g>
        </g>
        <g id="Symbol_8_1" data-name="Symbol 8 – 1">
          <g class="cls-17" transform="matrix(1, 0, 0, 1, -1671, -1050)">
            <path id="Path_21-3" data-name="Path 21" class="cls-7" d="M-1-17.348H339l60,25,60-25H799v225H459l-60,25-60-25H-1Z" transform="translate(2172 1442.35)"/>
          </g>
        </g>
      </g>
      <g id="Group_20-2" data-name="Group 20" transform="translate(-500 391)">
        <g id="Symbol_7_1-2" data-name="Symbol 7 – 1">
          <g class="cls-16" transform="matrix(1, 0, 0, 1, -1671, -1561)">
            <path id="Path_20-4" data-name="Path 20" class="cls-6" d="M-1-17.348H339l60,25,60-25H799v225H459l-60,25-60-25H-1Z" transform="translate(2172 1698.35)"/>
          </g>
        </g>
        <g id="Symbol_8_1-2" data-name="Symbol 8 – 1">
          <g class="cls-15" transform="matrix(1, 0, 0, 1, -1671, -1561)">
            <path id="Path_21-4" data-name="Path 21" class="cls-7" d="M-1-17.348H339l60,25,60-25H799v225H459l-60,25-60-25H-1Z" transform="translate(2172 1953.35)"/>
          </g>
        </g>
      </g>
    </g>
    <text id="Question_1" data-name="Question 1" class="cls-8" transform="translate(1852 1226)"><tspan x="0" y="0">Question 1</tspan></text>
    <text id="Question_2" data-name="Question 2" class="cls-8" transform="translate(1852 1287)"><tspan x="0" y="0">Question 2</tspan></text>
    <text id="Question_3" data-name="Question 3" class="cls-8" transform="translate(1852 1348)"><tspan x="0" y="0">Question 3</tspan></text>
    <text id="Question_4" data-name="Question 4" class="cls-8" transform="translate(1852 1409)"><tspan x="0" y="0">Question 4</tspan></text>
    <text id="Question_5" data-name="Question 5" class="cls-8" transform="translate(1852 1470)"><tspan x="0" y="0">Question 5</tspan></text>
    <text id="Question_6" data-name="Question 6" class="cls-8" transform="translate(1852 1531)"><tspan x="0" y="0">Question 6</tspan></text>
    <text id="Question_7" data-name="Question 7" class="cls-8" transform="translate(1852 1592)"><tspan x="0" y="0">Question 7</tspan></text>
    <g id="Group_200" data-name="Group 200" transform="translate(1656 949)">
      <g id="Rectangle_9" data-name="Rectangle 9" class="cls-9" transform="translate(1071)">
        <rect class="cls-13" width="90" height="40"/>
        <rect class="cls-1" x="0.5" y="0.5" width="89" height="39"/>
      </g>
      <text id="LOGIN" class="cls-10" transform="translate(1088.733 29)"><tspan x="0" y="0">LOGIN</tspan></text>
    </g>
    <g id="Group_201" data-name="Group 201" transform="translate(1749 949)">
      <g id="Group_162" data-name="Group 162">
        <path id="Path_40" data-name="Path 40" class="cls-11" d="M.5.5h89v39H.5Z" transform="translate(1158)"/>
        <text id="FAQ-3" data-name="FAQ" class="cls-12" transform="translate(1169.613 4)"><tspan x="15.481" y="24">FAQ</tspan></text>
      </g>
    </g>
    <g id="Group_202" data-name="Group 202" transform="translate(1721 949)">
      <g id="Group_163" data-name="Group 163" transform="translate(118 -20)">
        <path id="Path_37" data-name="Path 37" class="cls-9" d="M.5.5h89v39H.5Z" transform="translate(1158 20)"/>
        <text id="ABOUT" class="cls-10" transform="translate(1169.613 24)"><tspan x="3.586" y="24">ABOUT</tspan></text>
      </g>
    </g>
    <g id="Group_203" data-name="Group 203" transform="translate(1522 949)">
      <path id="Path_39" data-name="Path 39" class="cls-9" d="M.5.5H89.215v39H.5Z" transform="translate(1295)"/>
      <g id="Group_169" data-name="Group 169">
        <text id="SEARCH" class="cls-10" transform="translate(1295.285 4)"><tspan x="7.692" y="24">SEARCH</tspan></text>
      </g>
    </g>
    <g id="Group_204" data-name="Group 204" transform="translate(1342 929)">
      <g id="Rectangle_14" data-name="Rectangle 14" class="cls-9" transform="translate(1295 20)">
        <rect class="cls-13" width="90" height="40"/>
        <rect class="cls-1" x="0.5" y="0.5" width="89" height="39"/>
      </g>
      <text id="HOME" class="cls-10" transform="translate(1295 24)"><tspan x="17.924" y="24">HOME</tspan></text>
    </g>
  </g>
</svg>
