<svg xmlns="http://www.w3.org/2000/svg" xmlns:xlink="http://www.w3.org/1999/xlink" viewBox="1 -119 1366 1250">
  <defs>
    <style>
      .cls-1, .cls-8 {
        fill: none;
      }

      .cls-2 {
        clip-path: url(#clip-Search);
      }

      .cls-3 {
        fill: #7b0;
      }

      .cls-10, .cls-13, .cls-4 {
        fill: #fff;
      }

      .cls-4 {
        font-size: 80px;
      }

      .cls-10, .cls-13, .cls-15, .cls-17, .cls-4 {
        font-family: Abel-Regular, Abel;
      }

      .cls-5 {
        clip-path: url(#clip-path);
      }

      .cls-6 {
        fill: #777;
      }

      .cls-14, .cls-17, .cls-7 {
        fill: #555;
      }

      .cls-8 {
        stroke: #555;
        stroke-width: 2px;
      }

      .cls-9 {
        fill: #eee;
        font-size: 20px;
      }

      .cls-11, .cls-9 {
        font-family: SegoeUI, Segoe UI;
      }

      .cls-10 {
        stroke: #fff;
        stroke-width: 0.5px;
      }

      .cls-10, .cls-13, .cls-15, .cls-17 {
        font-size: 24px;
      }

      .cls-12 {
        fill: #666;
      }

      .cls-14, .cls-16 {
        stroke: #333;
      }

      .cls-15, .cls-16 {
        fill: #af0;
      }

      .cls-18 {
        stroke: none;
      }

      .cls-19 {
        fill: #333;
      }

      .cls-20 {
        filter: url(#Path_2);
      }

      .cls-21 {
        filter: url(#Path_21-2);
      }

      .cls-22 {
        filter: url(#Path_20-2);
      }

      .cls-23 {
        filter: url(#Path_21);
      }

      .cls-24 {
        filter: url(#Path_20);
      }

      .cls-25 {
        filter: url(#Path_19);
      }
    </style>
    <filter id="Path_19" x="93.5" y="71.5" width="315" height="515" filterUnits="userSpaceOnUse">
      <feOffset dy="3" input="SourceAlpha"/>
      <feGaussianBlur stdDeviation="2.5" result="blur"/>
      <feFlood flood-opacity="0.502"/>
      <feComposite operator="in" in2="blur"/>
      <feComposite in="SourceGraphic"/>
    </filter>
    <clipPath id="clip-path">
      <rect class="cls-1" width="800" height="1020"/>
    </clipPath>
    <filter id="Path_20" x="443.5" y="97.5" width="815" height="265" filterUnits="userSpaceOnUse">
      <feOffset dy="3" input="SourceAlpha"/>
      <feGaussianBlur stdDeviation="2.5" result="blur-2"/>
      <feFlood flood-opacity="0.502"/>
      <feComposite operator="in" in2="blur-2"/>
      <feComposite in="SourceGraphic"/>
    </filter>
    <filter id="Path_21" x="443.5" y="352.5" width="815" height="265" filterUnits="userSpaceOnUse">
      <feOffset dy="3" input="SourceAlpha"/>
      <feGaussianBlur stdDeviation="2.5" result="blur-3"/>
      <feFlood flood-opacity="0.502"/>
      <feComposite operator="in" in2="blur-3"/>
      <feComposite in="SourceGraphic"/>
    </filter>
    <filter id="Path_20-2" x="443.5" y="608.5" width="815" height="265" filterUnits="userSpaceOnUse">
      <feOffset dy="3" input="SourceAlpha"/>
      <feGaussianBlur stdDeviation="2.5" result="blur-4"/>
      <feFlood flood-opacity="0.502"/>
      <feComposite operator="in" in2="blur-4"/>
      <feComposite in="SourceGraphic"/>
    </filter>
    <filter id="Path_21-2" x="443.5" y="863.5" width="815" height="265" filterUnits="userSpaceOnUse">
      <feOffset dy="3" input="SourceAlpha"/>
      <feGaussianBlur stdDeviation="2.5" result="blur-5"/>
      <feFlood flood-opacity="0.502"/>
      <feComposite operator="in" in2="blur-5"/>
      <feComposite in="SourceGraphic"/>
    </filter>
    <filter id="Path_2" x="214.571" y="438.5" width="71.569" height="71.569" filterUnits="userSpaceOnUse">
      <feOffset dy="3" input="SourceAlpha"/>
      <feGaussianBlur stdDeviation="2.5" result="blur-6"/>
      <feFlood flood-opacity="0.502"/>
      <feComposite operator="in" in2="blur-6"/>
      <feComposite in="SourceGraphic"/>
    </filter>
    <clipPath id="clip-Search">
      <rect x="1" y="-119" width="1366" height="1250"/>
    </clipPath>
  </defs>
  <g id="Search" class="cls-2">
    <rect class="cls-19" x="1" y="-119" width="1366" height="1250"/>
    <g class="cls-25" transform="matrix(1, 0, 0, 1, 0, 0)">
      <path id="Path_19-2" data-name="Path 19" class="cls-3" d="M-1-3.269H124L149-30,174-3.269H299V470H-1Z" transform="translate(102 106)"/>
    </g>
    <text id="SEARCH-2" data-name="SEARCH" class="cls-4" transform="translate(101 -19)"><tspan x="26.113" y="78">SEARCH</tspan></text>
    <g id="Repeat_Grid_1" data-name="Repeat Grid 1" class="cls-5" transform="translate(451 102)">
      <g id="Group_20" data-name="Group 20" transform="translate(-500 -120)">
        <g id="Symbol_3_1" data-name="Symbol 3 – 1">
          <g class="cls-24" transform="matrix(1, 0, 0, 1, 49, 18)">
            <path id="Path_20-3" data-name="Path 20" class="cls-6" d="M-1-17.348H339l60,25,60-25H799v225H459l-60,25-60-25H-1Z" transform="translate(452 119.35)"/>
          </g>
        </g>
        <g id="Symbol_4_1" data-name="Symbol 4 – 1">
          <g class="cls-23" transform="matrix(1, 0, 0, 1, 49, 18)">
            <path id="Path_21-3" data-name="Path 21" class="cls-7" d="M-1-17.348H339l60,25,60-25H799v225H459l-60,25-60-25H-1Z" transform="translate(452 374.35)"/>
          </g>
        </g>
      </g>
      <g id="Group_20-2" data-name="Group 20" transform="translate(-500 391)">
        <g id="Symbol_3_1-2" data-name="Symbol 3 – 1">
          <g class="cls-22" transform="matrix(1, 0, 0, 1, 49, -493)">
            <path id="Path_20-4" data-name="Path 20" class="cls-6" d="M-1-17.348H339l60,25,60-25H799v225H459l-60,25-60-25H-1Z" transform="translate(452 630.35)"/>
          </g>
        </g>
        <g id="Symbol_4_1-2" data-name="Symbol 4 – 1">
          <g class="cls-21" transform="matrix(1, 0, 0, 1, 49, -493)">
            <path id="Path_21-4" data-name="Path 21" class="cls-7" d="M-1-17.348H339l60,25,60-25H799v225H459l-60,25-60-25H-1Z" transform="translate(452 885.35)"/>
          </g>
        </g>
      </g>
    </g>
    <g id="Group_23" data-name="Group 23" transform="translate(31 -119)">
      <g id="Group_15" data-name="Group 15" transform="translate(0 6)">
        <line id="Line_18" data-name="Line 18" class="cls-8" y1="2" x2="250" transform="translate(95.5 280)"/>
        <text id="title" class="cls-9" transform="translate(101 271)"><tspan x="0" y="0">title</tspan></text>
      </g>
      <g id="Group_16" data-name="Group 16" transform="translate(0 67)">
        <path id="Path_44" data-name="Path 44" class="cls-8" d="M0,2,250,0" transform="translate(95.5 280)"/>
        <text id="version" class="cls-9" transform="translate(101 271)"><tspan x="0" y="0">version</tspan></text>
      </g>
      <g id="Group_17" data-name="Group 17" transform="translate(0 128)">
        <line id="Line_18-2" data-name="Line 18" class="cls-8" y1="2" x2="250" transform="translate(95.5 280)"/>
        <text id="author" class="cls-9" transform="translate(101 271)"><tspan x="0" y="0">author</tspan></text>
      </g>
      <g id="Group_18" data-name="Group 18" transform="translate(0 189)">
        <path id="Path_45" data-name="Path 45" class="cls-8" d="M0,2,250,0" transform="translate(95.5 280)"/>
        <text id="isbn" class="cls-9" transform="translate(101 271)"><tspan x="0" y="0">isbn</tspan></text>
      </g>
      <g id="Group_19" data-name="Group 19" transform="translate(0 250)">
        <line id="Line_18-3" data-name="Line 18" class="cls-8" y1="2" x2="250" transform="translate(95.5 280)"/>
        <text id="upc" class="cls-9" transform="translate(101 271)"><tspan x="0" y="0">upc</tspan></text>
      </g>
      <text id="_results_" data-name="### results ►" class="cls-10" transform="translate(107 635)"><tspan x="41.432" y="26">### results </tspan><tspan class="cls-11" y="26">►</tspan></text>
      <g id="Group_152" data-name="Group 152" transform="translate(0 18)">
        <g id="Group_205" data-name="Group 205" transform="translate(-911.145 461.178)">
          <g class="cls-20" transform="matrix(1, 0, 0, 1, 880.14, -360.18)">
            <path id="Path_2-2" data-name="Path 2" class="cls-12" d="M0,0H40V40H0Z" transform="translate(250.36 443) rotate(45)"/>
          </g>
        </g>
        <text id="go_" data-name="go!" class="cls-13" transform="translate(206 581)"><tspan x="0" y="0">go!</tspan></text>
      </g>
    </g>
    <g id="Group_226" data-name="Group 226" transform="translate(-64 -119)">
      <g id="Rectangle_9" data-name="Rectangle 9" class="cls-14" transform="translate(1071)">
        <rect class="cls-18" width="90" height="40"/>
        <rect class="cls-1" x="0.5" y="0.5" width="89" height="39"/>
      </g>
      <text id="LOGIN" class="cls-15" transform="translate(1088.733 29)"><tspan x="0" y="0">LOGIN</tspan></text>
    </g>
    <g id="Group_227" data-name="Group 227" transform="translate(29 -119)">
      <g id="Group_162" data-name="Group 162">
        <g id="Rectangle_10" data-name="Rectangle 10" class="cls-14" transform="translate(1158)">
          <rect class="cls-18" width="90" height="40"/>
          <rect class="cls-1" x="0.5" y="0.5" width="89" height="39"/>
        </g>
        <text id="FAQ" class="cls-15" transform="translate(1169.613 4)"><tspan x="15.481" y="24">FAQ</tspan></text>
      </g>
    </g>
    <g id="Group_228" data-name="Group 228" transform="translate(1 -119)">
      <g id="Group_163" data-name="Group 163" transform="translate(118 -20)">
        <path id="Path_37" data-name="Path 37" class="cls-14" d="M.5.5h89v39H.5Z" transform="translate(1158 20)"/>
        <text id="ABOUT" class="cls-15" transform="translate(1169.613 24)"><tspan x="3.586" y="24">ABOUT</tspan></text>
      </g>
    </g>
    <g id="Group_229" data-name="Group 229" transform="translate(-198 -119)">
      <g id="Rectangle_13" data-name="Rectangle 13" class="cls-16" transform="translate(1295)">
        <rect class="cls-18" width="89.715" height="40"/>
        <rect class="cls-1" x="0.5" y="0.5" width="88.715" height="39"/>
      </g>
      <g id="Group_169" data-name="Group 169">
        <text id="SEARCH-3" data-name="SEARCH" class="cls-17" transform="translate(1295.285 4)"><tspan x="7.692" y="24">SEARCH</tspan></text>
      </g>
    </g>
    <g id="Group_230" data-name="Group 230" transform="translate(-378 -139)">
      <path id="Path_41" data-name="Path 41" class="cls-14" d="M.5.5h89v39H.5Z" transform="translate(1295 20)"/>
      <text id="HOME" class="cls-15" transform="translate(1295 24)"><tspan x="17.924" y="24">HOME</tspan></text>
    </g>
  </g>
</svg>
